<?xml version="1.0" encoding="utf-8"?>
<!-- Generator: Adobe Illustrator 19.2.0, SVG Export Plug-In . SVG Version: 6.00 Build 0)  -->
<svg version="1.1" id="Capa_1" xmlns="http://www.w3.org/2000/svg" xmlns:xlink="http://www.w3.org/1999/xlink" x="0px" y="0px"
	 viewBox="0 0 512 512" style="enable-background:new 0 0 512 512;" xml:space="preserve">
<style type="text/css">
	.st0{fill:#FFFFFF;}
</style>
<g>
	<g>
		<path class="st0" d="M25.8,256L210.2,71.5c4.2-4.2,4.2-10.9,0-15.1s-10.9-4.2-15.1,0l-192,192c-4.2,4.2-4.2,10.9,0,15.1l192,192
			c2.1,2.1,4.8,3.1,7.6,3.1s5.5-1,7.5-3.1c4.2-4.2,4.2-10.9,0-15.1L25.8,256z"/>
	</g>
</g>
<g>
	<g>
		<path class="st0" d="M501.3,245.3H10.7C4.8,245.3,0,250.1,0,256c0,5.9,4.8,10.7,10.7,10.7h490.7c5.9,0,10.7-4.8,10.7-10.7
			S507.2,245.3,501.3,245.3z"/>
	</g>
</g>
</svg>
