<?xml version="1.0" encoding="utf-8"?>
<!-- Generator: Adobe Illustrator 19.2.0, SVG Export Plug-In . SVG Version: 6.00 Build 0)  -->
<svg version="1.1" id="Layer_1" xmlns="http://www.w3.org/2000/svg" xmlns:xlink="http://www.w3.org/1999/xlink" x="0px" y="0px"
	 viewBox="0 0 299.9 299.9" style="enable-background:new 0 0 299.9 299.9;" xml:space="preserve">
<style type="text/css">
	.st0{fill:#FFFFFF;}
</style>
<g>
	<g>
		<path class="st0" d="M293.4,0h-52.2c-3.6,0-6.5,2.9-6.5,6.5v19.6C117.5,27.6,26.1,117.8,26.1,232.8v1.9H6.5
			c-3.6,0-6.5,2.9-6.5,6.5v52.2c0,3.6,2.9,6.5,6.5,6.5h52.2c3.6,0,6.5-2.9,6.5-6.5v-52.2c0-3.6-2.9-6.5-6.5-6.5H39.1v-1.9
			c0-107.6,85.7-192.1,195.6-193.6v19.5c0,3.6,2.9,6.5,6.5,6.5h52.2c3.6,0,6.5-2.9,6.5-6.5V6.5C299.9,2.9,297,0,293.4,0z
			 M52.2,247.8v39.1H13v-39.1h13h13L52.2,247.8z M286.9,52.2h-39.1v-13v-13V13h39.1V52.2z"/>
	</g>
</g>
</svg>
