<?xml version="1.0" encoding="utf-8"?>
<!-- Generator: Adobe Illustrator 19.2.0, SVG Export Plug-In . SVG Version: 6.00 Build 0)  -->
<svg version="1.1" id="Layer_1" xmlns="http://www.w3.org/2000/svg" xmlns:xlink="http://www.w3.org/1999/xlink" x="0px" y="0px"
	 viewBox="0 0 300 300" style="enable-background:new 0 0 300 300;" xml:space="preserve">
<style type="text/css">
	.st0{fill:#FFFFFF;}
</style>
<g>
	<g>
		<g>
			<path class="st0" d="M295.8,122.2c0-0.7-0.2-1.3-0.4-2c-4.7-24.5-28.8-42.1-57.9-42.1c-13.4,0-24.7,6.1-34.4,18.8h-52.8
				c0.9-10.1,4.1-14.9,7.8-20.3c5-7.4,10.7-15.8,10.7-36c0-3.5-2.8-6.2-6.2-6.2s-6.2,2.8-6.2,6.2c0,16.4-4,22.2-8.5,29
				c-4.2,6.2-8.9,13.2-10,27.3h-34.6C92.4,83.9,75.4,78.1,62.5,78.1c-27,0-48.1,18.5-52.7,46.3c-1,9.3-9.8,91.1-9.8,97.5
				c0,20.2,16.4,43.8,37.5,43.8c14.3,0,31.2-6.9,37.3-22.2c0.1-0.2,0.1-0.3,0.2-0.5L88,211.3c5.6,4.5,12.8,8.3,21,8.3
				c15.7,0,29.8-9.3,35.2-22.7h17.2c5.2,12.2,18.7,20,35.1,20c6.8,0,14.3-0.6,20.8-4.1l13.2,30.3c0,0.1,0.1,0.2,0.2,0.4
				c5.7,14.7,16.4,22.2,31.8,22.2c21.1,0,37.5-23.5,37.5-43.8C300,215.5,296,126,295.8,122.2L295.8,122.2z M262.5,253.1
				c-10.4,0-16.6-4.5-20.4-14.7c-0.1-0.3-0.3-0.6-0.4-0.9l-16.1-37.1c-0.9-2-2.6-3.3-4.8-3.7c-2.1-0.3-4.2,0.4-5.6,2
				c-3.6,4-8.8,5.6-18.6,5.6c-12.8,0-22.4-6-24.5-15.2c-0.7-2.8-3.2-4.8-6.1-4.8h-26.3c-2.9,0-5.4,2-6.1,4.8
				c-2.4,10.2-12.9,17.9-24.5,17.9c-7.9,0-15.1-6.8-18.6-10.8c-1.4-1.6-3.6-2.4-5.7-2c-2.1,0.4-3.9,1.8-4.8,3.8l-16.2,39.6
				c-0.1,0.2-0.3,0.5-0.4,0.8c-3.7,10.1-15.7,14.7-25.8,14.7c-13.5,0-25-17.2-25-31.2c0-4.4,6-61.3,9.7-95.8
				c3.5-21.5,19.3-35.5,40.3-35.5c10.1,0,24.6,5,32.4,16.1c1.2,1.7,3.1,2.7,5.1,2.7h106.3c2,0,3.9-1,5.1-2.7
				c7.8-11.1,15.9-16.1,26.1-16.1c20,0,42.2,11.3,45.7,33c0,0.2,0.1,0.3,0.1,0.5c1.5,32.5,4.1,93,4.1,97.8
				C287.5,235.9,276,253.1,262.5,253.1L262.5,253.1z"/>
			<path class="st0" d="M75,146.9H62.5v-12.5c0-3.5-2.8-6.2-6.2-6.2s-6.2,2.8-6.2,6.2v12.5H37.5c-3.5,0-6.2,2.8-6.2,6.2
				s2.8,6.2,6.2,6.2H50v12.5c0,3.5,2.8,6.2,6.2,6.2s6.2-2.8,6.2-6.2v-12.5H75c3.5,0,6.2-2.8,6.2-6.2S78.5,146.9,75,146.9z"/>
			<path class="st0" d="M137.5,146.9H125c-3.5,0-6.2,2.8-6.2,6.2s2.8,6.2,6.2,6.2h12.5c3.5,0,6.2-2.8,6.2-6.2
				S140.9,146.9,137.5,146.9z"/>
			<path class="st0" d="M175,146.9h-12.5c-3.5,0-6.2,2.8-6.2,6.2s2.8,6.2,6.2,6.2H175c3.5,0,6.2-2.8,6.2-6.2S178.4,146.9,175,146.9z
				"/>
			<path class="st0" d="M209.9,125.5c-2.3,2.4-3.6,5.6-3.6,8.9c0,3.3,1.3,6.5,3.6,8.8c2.4,2.4,5.6,3.7,8.9,3.7
				c3.2,0,6.5-1.3,8.8-3.7c2.4-2.3,3.7-5.6,3.7-8.8c0-3.3-1.3-6.5-3.7-8.9C222.9,120.9,214.6,120.9,209.9,125.5z"/>
			<path class="st0" d="M247.4,113c-2.4,2.4-3.7,5.6-3.7,8.9c0,3.2,1.3,6.5,3.7,8.8c2.3,2.4,5.5,3.7,8.8,3.7c3.3,0,6.5-1.3,8.8-3.7
				c2.4-2.3,3.7-5.6,3.7-8.8c0-3.3-1.3-6.5-3.7-8.9C260.4,108.4,252.1,108.4,247.4,113L247.4,113z"/>
			<path class="st0" d="M209.9,163.1c-2.3,2.3-3.6,5.5-3.6,8.8c0,3.3,1.3,6.5,3.6,8.8c2.4,2.4,5.6,3.7,8.9,3.7
				c3.2,0,6.5-1.3,8.8-3.7c2.4-2.3,3.7-5.5,3.7-8.8c0-3.2-1.3-6.5-3.7-8.8C222.9,158.4,214.6,158.4,209.9,163.1z"/>
			<path class="st0" d="M247.4,150.5c-2.4,2.4-3.7,5.6-3.7,8.9c0,3.2,1.3,6.5,3.7,8.8c2.3,2.4,5.5,3.7,8.8,3.7
				c3.3,0,6.5-1.3,8.8-3.7c2.4-2.3,3.7-5.6,3.7-8.8c0-3.3-1.3-6.5-3.7-8.9C260.4,145.9,252.1,145.9,247.4,150.5L247.4,150.5z"/>
		</g>
	</g>
</g>
</svg>
