<?xml version="1.0" encoding="utf-8"?>
<!-- Generator: Adobe Illustrator 19.2.0, SVG Export Plug-In . SVG Version: 6.00 Build 0)  -->
<svg version="1.1" id="_x31__x2C_5" xmlns="http://www.w3.org/2000/svg" xmlns:xlink="http://www.w3.org/1999/xlink" x="0px"
	 y="0px" viewBox="0 0 512 512" style="enable-background:new 0 0 512 512;" xml:space="preserve">
<style type="text/css">
	.st0{fill:#FFFFFF;}
</style>
<path class="st0" d="M256,512c-70.6,0-128-57.4-128-128V186.7c0-32.4,26.3-58.7,58.7-58.7h138.7c32.4,0,58.7,26.3,58.7,58.7V384
	C384,454.6,326.6,512,256,512z M186.7,160c-14.7,0-26.7,12-26.7,26.7V384c0,52.9,43.1,96,96,96s96-43.1,96-96V186.7
	c0-14.7-12-26.7-26.7-26.7H186.7z"/>
<path class="st0" d="M325.3,160H186.7c-8.8,0-16-7.2-16-16v-26.7c0-47.1,38.3-85.3,85.3-85.3s85.3,38.3,85.3,85.3V144
	C341.3,152.8,334.2,160,325.3,160z M202.7,128h106.7v-10.7c0-29.4-23.9-53.3-53.3-53.3s-53.3,23.9-53.3,53.3V128z"/>
<path class="st0" d="M320,106.7c-8.8,0-16-7.2-16-16c0-50,40.7-90.7,90.7-90.7c8.8,0,16,7.2,16,16s-7.2,16-16,16
	C362.3,32,336,58.3,336,90.7C336,99.5,328.8,106.7,320,106.7z"/>
<path class="st0" d="M192,106.7c-8.8,0-16-7.2-16-16c0-32.4-26.3-58.7-58.7-58.7c-8.8,0-16-7.2-16-16s7.2-16,16-16
	c50,0,90.7,40.7,90.7,90.7C208,99.5,200.8,106.7,192,106.7z"/>
<path class="st0" d="M368,245.3c-6.7,0-12.9-4.2-15.2-10.9c-2.8-8.4,1.7-17.4,10.1-20.2l55.4-18.5l19.4-87.2
	c1.9-8.6,10.4-14,19.1-12.1c8.6,1.9,14.1,10.5,12.1,19.1l-21.3,96c-1.2,5.5-5.2,9.9-10.6,11.7l-64,21.3
	C371.4,245.1,369.7,245.3,368,245.3L368,245.3z"/>
<path class="st0" d="M432,320h-64c-8.8,0-16-7.2-16-16c0-8.8,7.2-16,16-16h59.2l60-40c7.3-4.9,17.3-2.9,22.2,4.4
	c4.9,7.4,2.9,17.3-4.4,22.2l-64,42.7C438.3,319.1,435.2,320,432,320L432,320z"/>
<path class="st0" d="M474.7,496c-5.3,0-10.4-2.6-13.5-7.4l-45.1-70.1l-53.5-19.1c-8.3-3-12.7-12.1-9.7-20.4
	c3-8.3,12.1-12.7,20.4-9.7l58.7,20.9c3.3,1.2,6.2,3.4,8.1,6.4l48,74.7c4.8,7.4,2.6,17.3-4.8,22.1C480.6,495.2,477.7,496,474.7,496
	L474.7,496z"/>
<path class="st0" d="M144,245.3c-1.7,0-3.4-0.3-5.1-0.8l-64-21.3c-5.3-1.8-9.3-6.2-10.6-11.7l-21.3-96c-1.9-8.6,3.5-17.2,12.1-19.1
	c8.6-1.9,17.2,3.5,19.1,12.1l19.4,87.2l55.4,18.5c8.4,2.8,12.9,11.9,10.1,20.2C156.9,241.1,150.7,245.3,144,245.3L144,245.3z"/>
<path class="st0" d="M144,320H80c-3.2,0-6.3-0.9-8.9-2.7l-64-42.7c-7.4-4.9-9.3-14.8-4.4-22.2s14.8-9.3,22.2-4.4l60,40H144
	c8.8,0,16,7.2,16,16C160,312.8,152.8,320,144,320L144,320z"/>
<path class="st0" d="M37.3,490.7c-3,0-6-0.8-8.6-2.5c-7.4-4.8-9.6-14.7-4.8-22.1l48-74.7c1.9-3,4.8-5.2,8.1-6.4l58.7-20.9
	c8.4-3.1,17.5,1.4,20.4,9.7c3,8.3-1.4,17.5-9.7,20.4l-53.5,19.1l-45.1,70.1C47.7,488.1,42.6,490.7,37.3,490.7z"/>
<path class="st0" d="M256,512c-8.8,0-16-7.2-16-16V165.3c0-8.8,7.2-16,16-16c8.8,0,16,7.2,16,16V496C272,504.9,264.8,512,256,512z"
	/>
</svg>
