<?xml version="1.0" encoding="utf-8"?>
<!-- Generator: Adobe Illustrator 19.2.0, SVG Export Plug-In . SVG Version: 6.00 Build 0)  -->
<svg version="1.1" id="Capa_1" xmlns="http://www.w3.org/2000/svg" xmlns:xlink="http://www.w3.org/1999/xlink" x="0px" y="0px"
	 viewBox="0 0 511.8 511.8" style="enable-background:new 0 0 511.8 511.8;" xml:space="preserve">
<style type="text/css">
	.st0{fill:#FFFFFF;}
</style>
<g>
	<g>
		<path class="st0" d="M500.9,191.8H31.6c-5.9,0-10.7,4.8-10.7,10.7v256c0,29.4,23.9,53.3,53.3,53.3h384c29.4,0,53.3-23.9,53.3-53.3
			v-256C511.6,196.6,506.8,191.8,500.9,191.8z M490.3,458.5c0,17.6-14.4,32-32,32h-384c-17.6,0-32-14.4-32-32V213.1h448V458.5z"/>
	</g>
</g>
<g>
	<g>
		<path class="st0" d="M511.3,93.1l-18.2-68.9C488.9,7.5,471.8-3,454.9,0.8l-429.8,102c-8.4,1.9-15.6,7.1-20.1,14.4
			c-4.5,7.4-5.9,16.1-3.8,24.5l20.1,79.4c1.2,4.8,5.5,8,10.3,8c0.9,0,1.7-0.1,2.6-0.3c5.7-1.4,9.2-7.2,7.7-12.9l-1.2-4.6
			l462.5-105.1c2.8-0.7,5.3-2.4,6.8-4.9C511.6,98.9,512,95.9,511.3,93.1z M35.6,190.6l-13.7-54.1c-0.7-2.8-0.2-5.7,1.3-8.2
			c1.5-2.5,3.9-4.2,6.8-4.8l429.8-102c0.8-0.2,1.6-0.3,2.3-0.3c4.8,0,9.2,3.3,10.4,8.2l15.4,58.3L35.6,190.6z"/>
	</g>
</g>
<g>
	<g>
		<path class="st0" d="M121.7,192.9c-5.3-2.6-11.6-0.5-14.3,4.8L64.7,283c-2.6,5.3-0.5,11.7,4.8,14.3c1.6,0.8,3.2,1.1,4.8,1.1
			c3.9,0,7.7-2.2,9.6-5.9l42.7-85.3C129.1,202,127,195.6,121.7,192.9z"/>
	</g>
</g>
<g>
	<g>
		<path class="st0" d="M228.4,192.9c-5.3-2.6-11.7-0.5-14.3,4.8L171.4,283c-2.6,5.3-0.5,11.7,4.8,14.3c1.6,0.8,3.2,1.1,4.8,1.1
			c3.9,0,7.7-2.2,9.5-5.9l42.7-85.3C235.8,202,233.6,195.6,228.4,192.9z"/>
	</g>
</g>
<g>
	<g>
		<path class="st0" d="M335,192.9c-5.2-2.6-11.6-0.5-14.3,4.8L278,283c-2.6,5.3-0.5,11.7,4.8,14.3c1.6,0.8,3.2,1.1,4.8,1.1
			c3.9,0,7.7-2.2,9.5-5.9l42.7-85.3C342.4,202,340.3,195.6,335,192.9z"/>
	</g>
</g>
<g>
	<g>
		<path class="st0" d="M441.7,192.9c-5.3-2.6-11.6-0.5-14.3,4.8L384.7,283c-2.6,5.3-0.5,11.7,4.8,14.3c1.6,0.8,3.2,1.1,4.8,1.1
			c3.9,0,7.7-2.2,9.5-5.9l42.7-85.3C449.1,202,447,195.6,441.7,192.9z"/>
	</g>
</g>
<g>
	<g>
		<path class="st0" d="M500.9,277.1H31.6c-5.9,0-10.7,4.8-10.7,10.7s4.8,10.7,10.7,10.7h469.3c5.9,0,10.7-4.8,10.7-10.7
			S506.8,277.1,500.9,277.1z"/>
	</g>
</g>
<g>
	<g>
		<path class="st0" d="M134.8,173.2L61.3,99.7c-4.2-4.2-10.9-4.2-15.1,0s-4.2,10.9,0,15.1l73.5,73.5c2.1,2.1,4.8,3.1,7.6,3.1
			s5.5-1,7.5-3.1C138.9,184.1,138.9,177.3,134.8,173.2z"/>
	</g>
</g>
<g>
	<g>
		<path class="st0" d="M239.1,149.5L165.6,76c-4.2-4.2-10.9-4.2-15.1,0c-4.2,4.2-4.2,10.9,0,15.1l73.5,73.5c2.1,2.1,4.8,3.1,7.6,3.1
			s5.5-1,7.6-3.1C243.3,160.4,243.3,153.6,239.1,149.5z"/>
	</g>
</g>
<g>
	<g>
		<path class="st0" d="M343.4,125.8L270,52.3c-4.2-4.2-10.9-4.2-15.1,0s-4.2,10.9,0,15.1l73.4,73.5c2.1,2.1,4.8,3.1,7.6,3.1
			s5.5-1,7.5-3.1C347.6,136.7,347.6,129.9,343.4,125.8z"/>
	</g>
</g>
<g>
	<g>
		<path class="st0" d="M447.6,102.1l-73.4-73.5c-4.2-4.2-10.9-4.2-15.1,0s-4.2,10.9,0,15.1l73.4,73.5c2.1,2.1,4.8,3.1,7.6,3.1
			s5.5-1,7.5-3.1C451.8,113,451.8,106.3,447.6,102.1z"/>
	</g>
</g>
</svg>
