<?xml version="1.0" encoding="utf-8"?>
<!-- Generator: Adobe Illustrator 19.2.0, SVG Export Plug-In . SVG Version: 6.00 Build 0)  -->
<svg version="1.1" id="Layer_1" xmlns="http://www.w3.org/2000/svg" xmlns:xlink="http://www.w3.org/1999/xlink" x="0px" y="0px"
	 viewBox="0 0 512 512" style="enable-background:new 0 0 512 512;" xml:space="preserve">
<style type="text/css">
	.st0{fill:#FFFFFF;}
</style>
<g>
	<g>
		<path class="st0" d="M495.6,344.6l-21.1-25.3c-6.5-7.8-11-17.2-13-27.2c-2.7-13.7-0.7-28.1,5.8-40.5L487,214
			c10.6-20.3,8.6-45.3-5.1-63.6c-13.5-18-35.6-26.8-57.7-23.1l-18.4,3.1c-13.2,2.2-26.4-3-34.7-13.4L353,94
			c-8.5-10.9-20-18.9-33.1-23.3c-15-5-31.5-4.8-46.3,0.6l-9.8,3.6C258,77,251.5,75,247.9,70c-8.5-11.9-21.7-19.3-36.3-20.5L195.2,48
			c-15.1-1.2-29.7,4.6-39.9,15.7l-22,23.8c-2.2,2.4-5.2,3.7-8.5,3.7s-6.3-1.3-8.5-3.7L93.8,63.1c-10.1-11-25.3-15.3-39.7-11.4
			c-20.4,5.6-32.9,26.1-28.4,46.8l16.9,78.2c6.3,29.2,3.4,59.4-8.3,87.2c-11.1,26.3-19.5,49.4-25.1,68.8
			c-5.5,19.2-5.7,39.1-0.6,57.7c8.8,32.4,33.8,49,165.3,68.3c25.1,3.7,50.8,5.5,77,5.5c39.8,0,80.9-4.2,122.8-12.7
			c4.9-1,8.1-5.8,7.1-10.7c-1-4.9-5.8-8.1-10.7-7.1c-67.4,13.6-132.6,15.9-193.6,7c-131-19.1-145-34.9-150.5-55.1
			c-4.2-15.4-4-32,0.6-48c5.3-18.6,13.5-41.1,24.3-66.7c13.2-31.3,16.5-65.2,9.4-98.1L43.4,94.7C41,83.4,47.8,72.2,58.9,69.2
			c7.8-2.1,16.1,0.2,21.6,6.2L103,99.7c5.6,6.1,13.6,9.6,21.8,9.6l0,0c8.3,0,16.2-3.5,21.8-9.6l22-23.8c6.5-7,15.8-10.6,25.2-9.9
			l16.4,1.3c9.2,0.7,17.6,5.4,22.9,12.9c8.3,11.6,23.4,16.3,36.8,11.4l9.8-3.6c11-4,23.3-4.2,34.4-0.5c9.7,3.3,18.2,9.2,24.6,17.3
			l18.1,23c12.3,15.7,32.2,23.4,51.9,20.1l18.4-3.1c15.5-2.6,30.8,3.6,40.2,16.1c9.6,12.8,11,30.2,3.6,44.4l-19.7,37.6
			c-8.4,16-11.1,34.7-7.5,52.4c2.6,13,8.4,25.1,16.9,35.3l21.1,25.3c4.7,5.7,7.3,12.8,7.3,20.2c0,13.1-8.2,25-20.4,29.5
			c-6.8,2.5-14.7,5.3-23.8,8.3c-4.8,1.6-7.4,6.7-5.8,11.4c1.6,4.8,6.7,7.4,11.4,5.8c9.3-3,17.5-6,24.5-8.6
			c19.2-7.2,32.1-25.9,32.1-46.5C507.1,364.8,503,353.5,495.6,344.6z"/>
		<path class="st0" d="M250.9,469.1c-26.4,0-52.6-1.9-77.7-5.6C38.9,443.9,13.3,426.2,3.8,391.7c-5.3-19.4-5.1-40.3,0.6-60.3
			c5.6-19.5,14.1-42.8,25.3-69.3c11.4-26.9,14.2-56.1,8.1-84.3L20.9,99.5c-5-23.2,9-46.3,31.9-52.6c16.1-4.4,33.2,0.5,44.6,12.8
			l22.5,24.4c1.3,1.4,3,2.2,4.9,2.2s3.6-0.7,4.9-2.1l22-23.8C163,48.1,179,41.8,195.6,43.1l16.4,1.3c16,1.2,30.5,9.4,39.9,22.5
			c2.3,3.2,6.5,4.5,10.2,3.2l9.8-3.6c15.9-5.8,33.5-6,49.6-0.7c14,4.7,26.3,13.3,35.4,24.9l18.1,23c7.2,9.1,18.6,13.6,30,11.6
			l18.4-3.1c23.9-4,47.8,5.6,62.4,25c14.9,19.8,17.1,46.9,5.6,68.9l-19.7,37.6c-6,11.4-7.9,24.6-5.3,37.3c1.8,9.2,6,17.9,12,25
			l21.1,25.3c8.1,9.8,12.6,22.2,12.6,34.9c0,22.6-14.2,43.2-35.3,51.1c-8.1,3-16.4,5.9-24.7,8.6c-3.5,1.2-7.3,0.9-10.6-0.8
			c-3.3-1.7-5.8-4.6-7-8.1c-2.4-7.3,1.6-15.2,8.9-17.6c8-2.6,15.9-5.4,23.6-8.2c10.3-3.8,17.2-13.9,17.2-24.9c0-6.2-2.2-12.3-6.2-17
			L456.8,334c-9-10.8-15.2-23.7-17.9-37.5c-3.8-18.9-0.9-38.6,8-55.7l19.7-37.6c6.5-12.5,5.3-27.9-3.2-39.2
			c-8.3-11.1-21.9-16.5-35.5-14.2l-18.4,3.1c-21.5,3.6-43.1-4.8-56.5-21.9l-18.1-23c-5.8-7.3-13.5-12.7-22.3-15.7
			c-10.1-3.4-21.2-3.2-31.2,0.4l-9.8,3.6c-15.4,5.6-32.9,0.2-42.5-13.2c-4.5-6.3-11.6-10.3-19.3-10.9l-16.4-1.3
			c-8-0.6-15.8,2.4-21.3,8.3l-22,23.8c-6.5,7.1-15.8,11.1-25.4,11.1S105.8,110,99.3,103L76.9,78.7c-4.3-4.6-10.7-6.5-16.7-4.8
			c-8.6,2.3-13.9,11-12,19.8l16.9,78.2c7.3,33.9,4,68.8-9.6,101c-10.7,25.4-18.8,47.6-24.1,66.1c-4.3,15.1-4.5,30.8-0.6,45.3
			c4.9,17.8,18.7,32.9,146.4,51.6c60.5,8.9,125.1,6.5,192-7c3.6-0.8,7.3,0,10.4,2c3.1,2.1,5.3,5.2,6,8.9c1.5,7.5-3.4,14.9-10.9,16.4
			C332.6,464.8,291,469.1,250.9,469.1z M64.6,55.2c-3.1,0-6.2,0.4-9.2,1.2c-17.9,4.9-28.8,22.9-24.9,41l16.9,78.2
			c6.5,30.2,3.6,61.4-8.6,90.2c-11,26.2-19.4,49.1-24.9,68.2c-5.2,18.3-5.4,37.4-0.6,55c8.2,30.2,32.5,45.9,161.3,64.7
			c24.7,3.6,50.4,5.5,76.3,5.5c39.5,0,80.4-4.2,121.9-12.6c2.2-0.5,3.7-2.6,3.2-4.9c-0.2-1.1-0.9-2-1.8-2.7c-0.9-0.6-2-0.8-3.1-0.6
			c-68,13.7-133.8,16.1-195.4,7c-61.6-9-100.8-17.8-123.5-27.5c-21.1-9.1-27.7-19.1-31-31.2c-4.4-16.2-4.2-33.7,0.6-50.6
			c5.4-18.9,13.6-41.5,24.5-67.3c12.8-30.4,16-63.3,9.1-95.1l-16.8-78c-3-13.8,5.4-27.6,19-31.3c9.6-2.6,19.8,0.3,26.5,7.6
			l22.5,24.4c4.7,5.1,11.3,8,18.2,8s13.5-2.9,18.2-8l22-23.8c7.5-8.1,18.2-12.3,29.2-11.5l16.4,1.3c10.6,0.8,20.3,6.3,26.5,15
			c7,9.8,19.8,13.8,31.1,9.7l9.8-3.6c12.1-4.4,25.5-4.6,37.6-0.5c10.6,3.5,19.9,10.1,26.9,18.9l18.1,23
			c11.2,14.3,29.3,21.3,47.2,18.3l18.4-3.1c17.2-2.9,34.5,4,45,18c10.7,14.3,12.3,33.8,4,49.6l-19.7,37.6
			c-7.9,15.1-10.4,32.5-7.1,49.2c2.4,12.1,7.9,23.6,15.8,33.1l21.1,25.3c5.4,6.5,8.4,14.8,8.4,23.3c0,15.1-9.5,28.8-23.6,34.1
			c-7.8,2.9-15.9,5.7-24,8.4c-2.2,0.7-3.4,3.1-2.7,5.2c0.3,1.1,1.1,1.9,2.1,2.4s2.1,0.6,3.1,0.2c8.1-2.7,16.3-5.5,24.3-8.5
			c17.3-6.5,29-23.3,29-41.9c0-10.4-3.7-20.6-10.4-28.6l-21.1-25.3c-7-8.4-11.9-18.6-14.1-29.4c-3-14.8-0.7-30.4,6.3-43.7l19.7-37.6
			c9.8-18.6,7.9-41.6-4.7-58.4c-12.4-16.5-32.7-24.6-53-21.2l-18.4,3.1c-14.9,2.5-30-3.3-39.3-15.3l-18.1-23
			C340.9,86.6,330.2,79.1,318,75c-13.9-4.7-29.2-4.5-43.1,0.6l-9.8,3.6c-7.8,2.8-16.7,0.1-21.6-6.7c-7.6-10.7-19.5-17.4-32.6-18.4
			l-16.4-1.3c-13.6-1.1-26.7,4.1-36,14.1l-22,23.8c-3.2,3.4-7.5,5.3-12.1,5.3c-4.7,0-9-1.9-12.1-5.3L90.2,66.4
			C83.5,59.1,74.2,55.2,64.6,55.2z"/>
	</g>
	<g>
		<path class="st0" d="M413.9,422.7c-4.5,1.3-9.1,2.5-13.8,3.8c-4.8,1.3-7.7,6.2-6.5,11c1.1,4.1,4.7,6.8,8.7,6.8
			c0.8,0,1.5-0.1,2.3-0.3c4.9-1.3,9.6-2.6,14.2-3.8c4.8-1.4,7.6-6.4,6.3-11.2C423.7,424.2,418.8,421.4,413.9,422.7z"/>
		<path class="st0" d="M402.3,449.2c-6.3,0-11.9-4.3-13.5-10.4c-1.9-7.4,2.6-15.1,10-17c4.7-1.2,9.4-2.5,13.7-3.7l0,0
			c7.4-2,15.1,2.3,17.2,9.6c2.1,7.4-2.2,15.1-9.6,17.2c-4.9,1.4-9.7,2.7-14.3,3.9C404.7,449,403.6,449.2,402.3,449.2z M415.2,427.5
			c-4.4,1.3-9.1,2.5-13.9,3.8c-2.2,0.6-3.5,2.8-3,5c0.5,1.8,2.1,3.1,4,3.1c0.4,0,0.7,0,1-0.1c4.6-1.2,9.3-2.5,14.2-3.8
			c2.2-0.6,3.5-2.9,2.9-5.1C419.7,428.1,417.4,426.9,415.2,427.5z"/>
	</g>
	<g>
		<path class="st0" d="M312.9,162.6c0-5-4.1-9.2-9.2-9.2s-9.2,4.1-9.2,9.2c0,5,4.1,9.2,9.2,9.2C308.9,171.7,312.9,167.6,312.9,162.6
			z"/>
		<path class="st0" d="M303.8,177.1c-8,0-14.5-6.5-14.5-14.5c0-8,6.5-14.5,14.5-14.5s14.5,6.5,14.5,14.5
			C318.3,170.5,311.8,177.1,303.8,177.1z M303.8,158.7c-2.1,0-3.8,1.7-3.8,3.8s1.7,3.8,3.8,3.8s3.8-1.7,3.8-3.8
			S306,158.7,303.8,158.7z"/>
	</g>
	<g>
		<path class="st0" d="M198.6,148.8c0-5-4.1-9.2-9.2-9.2c-5,0-9.2,4.1-9.2,9.2c0,5,4.1,9.2,9.2,9.2
			C194.5,158,198.6,153.8,198.6,148.8z"/>
		<path class="st0" d="M189.4,163.3L189.4,163.3c-8,0-14.5-6.5-14.5-14.5s6.5-14.5,14.5-14.5c8,0,14.5,6.5,14.5,14.5
			c0,3.9-1.5,7.5-4.3,10.3C197,161.8,193.4,163.3,189.4,163.3z M189.4,145c-2.1,0-3.8,1.7-3.8,3.8s1.7,3.8,3.8,3.8l0,0
			c1,0,2-0.4,2.7-1.1c0.8-0.8,1.1-1.6,1.1-2.7C193.3,146.7,191.5,145,189.4,145z"/>
	</g>
	<g>
		<path class="st0" d="M129.7,199.5c-1.4,5.2,1.6,10.7,6.9,12.1c3.1,0.9,70.7,19.3,172,19.3c10.4,0,21.2-0.2,32.3-0.7
			c5.5-0.2,9.7-4.8,9.5-10.3c-0.2-5.5-5-9.8-10.3-9.5c-115.9,4.5-197.5-17.7-198.3-18C136.4,191.2,131.1,194.3,129.7,199.5z"/>
		<path class="st0" d="M308.6,236.3c-102,0-170.6-18.7-173.5-19.4c-8.1-2.3-12.9-10.7-10.6-18.8l0,0c2.2-8.1,10.6-12.8,18.8-10.6
			c0.9,0.2,82.3,22.1,196.6,17.8c3.8-0.2,7.7,1.1,10.7,3.8c3.1,2.8,5,6.8,5.1,10.8s-1.3,8-4,10.9s-6.5,4.7-10.6,4.9
			C330.3,236.2,319.4,236.3,308.6,236.3z M134.8,201.1c-0.7,2.4,0.8,4.9,3.2,5.6c2.8,0.8,70,19.1,170.6,19.1
			c10.7,0,21.5-0.2,32.1-0.7c1.2,0,2.3-0.5,3.2-1.4c0.8-0.9,1.2-2.1,1.2-3.3s-0.7-2.4-1.5-3.3c-0.5-0.4-1.5-1.2-2.9-1.1h-0.2
			c-116.1,4.5-199.1-17.9-199.9-18.1C137.8,197.2,135.4,198.6,134.8,201.1L134.8,201.1z"/>
	</g>
</g>
</svg>
