<?xml version="1.0" encoding="utf-8"?>
<!-- Generator: Adobe Illustrator 19.2.0, SVG Export Plug-In . SVG Version: 6.00 Build 0)  -->
<svg version="1.1" id="Capa_1" xmlns="http://www.w3.org/2000/svg" xmlns:xlink="http://www.w3.org/1999/xlink" x="0px" y="0px"
	 viewBox="0 0 512 512" style="enable-background:new 0 0 512 512;" xml:space="preserve">
<style type="text/css">
	.st0{fill:#FFFFFF;}
</style>
<g>
	<g>
		<path class="st0" d="M112,96C50.2,96,0,146.2,0,208c0,57.5,89.9,159.3,100.1,170.7c3,3.4,7.4,5.3,11.9,5.3s8.9-2,11.9-5.3
			C134.1,367.3,224,265.5,224,208C224,146.2,173.8,96,112,96z M112,343.6C77.1,302.1,32,238.5,32,208c0-44.1,35.9-80,80-80
			s80,35.9,80,80C192,238.5,146.9,302.1,112,343.6z"/>
	</g>
</g>
<g>
	<g>
		<path class="st0" d="M112,160c-26.5,0-48,21.5-48,48s21.5,48,48,48s48-21.5,48-48S138.5,160,112,160z M112,224
			c-8.8,0-16-7.2-16-16s7.2-16,16-16s16,7.2,16,16S120.8,224,112,224z"/>
	</g>
</g>
<g>
	<g>
		<path class="st0" d="M496,0H368c-8.8,0-16,7.2-16,16v96v64c0,8.8,7.2,16,16,16s16-7.2,16-16v-48h112c8.8,0,16-7.2,16-16V16
			C512,7.2,504.8,0,496,0z M480,96h-96V32h96V96z"/>
	</g>
</g>
<g>
	<g>
		<path class="st0" d="M448,352H288c-17.6,0-32-14.4-32-32s14.4-32,32-32h34.9c6.6,18.6,24.2,32,45.1,32c26.5,0,48-21.5,48-48
			s-21.5-48-48-48c-20.8,0-38.4,13.4-45.1,32H288c-35.3,0-64,28.7-64,64s28.7,64,64,64h160c17.6,0,32,14.4,32,32s-14.4,32-32,32
			H157.1c-6.6-18.6-24.2-32-45.1-32c-26.5,0-48,21.5-48,48s21.5,48,48,48c20.8,0,38.4-13.4,45.1-32H448c35.3,0,64-28.7,64-64
			S483.3,352,448,352z M368,256c8.8,0,16,7.2,16,16s-7.2,16-16,16s-16-7.2-16-16S359.2,256,368,256z M112,480c-8.8,0-16-7.2-16-16
			s7.2-16,16-16s16,7.2,16,16S120.8,480,112,480z"/>
	</g>
</g>
</svg>
