<?xml version="1.0" encoding="utf-8"?>
<!-- Generator: Adobe Illustrator 19.2.0, SVG Export Plug-In . SVG Version: 6.00 Build 0)  -->
<svg version="1.1" id="Layer_1" xmlns="http://www.w3.org/2000/svg" xmlns:xlink="http://www.w3.org/1999/xlink" x="0px" y="0px"
	 viewBox="0 0 512 512" style="enable-background:new 0 0 512 512;" xml:space="preserve">
<style type="text/css">
	.st0{fill:#FFFFFF;}
</style>
<path class="st0" d="M256.1,320c-35.3,0-64-28.7-64-64s28.7-64,64-64s64,28.7,64,64S291.3,320,256.1,320z M256.1,224.1
	c-17.6,0-32,14.4-32,32c0,17.6,14.4,32,32,32c17.6,0,32-14.4,32-32C288,238.4,273.7,224.1,256.1,224.1z"/>
<path class="st0" d="M384,362.7c-11.8,0-21.3-9.6-21.3-21.3V170.7c0-15.8,18.2-26.7,32.9-18c0.6,0.4,1.3,0.8,1.8,1.3l106.6,85.3
	c5.6,5.5,7.9,11,7.9,16.8c0,5.8-2.3,11.3-6.5,15.5l-108,86.6c-0.6,0.5-1.2,0.9-1.8,1.3C391.9,361.6,388.1,362.7,384,362.7z
	 M394.7,192.7v126.6l79.2-63.4L394.7,192.7z"/>
<path class="st0" d="M128.1,362.7c-4,0-7.8-1.1-11.6-3.3c-0.6-0.4-1.3-0.8-1.8-1.3L8,272.8c-5.6-5.5-7.9-11-7.9-16.8
	c0-5.8,2.3-11.3,6.5-15.5l108-86.6c0.6-0.5,1.2-0.9,1.8-1.3c14.7-8.7,32.9,2.2,32.9,18v170.6C149.4,353.1,139.8,362.7,128.1,362.7z
	 M38.2,256.1l79.2,63.3V192.7L38.2,256.1z"/>
<path class="st0" d="M256.1,512c-5.8,0-11.3-2.3-15.5-6.5l-86.6-108c-0.5-0.6-0.9-1.2-1.3-1.8c-2.2-3.8-3.3-7.6-3.3-11.6
	c0-11.8,9.6-21.3,21.3-21.3h170.6c11.8,0,21.3,9.6,21.3,21.3c0,4-1.1,7.8-3.3,11.6c-0.4,0.6-0.8,1.3-1.3,1.8l-85.3,106.6
	C267.3,509.7,261.8,512,256.1,512z M192.7,394.7l63.4,79.2l63.3-79.2H192.7z M341.4,394.7h0.2H341.4z"/>
<path class="st0" d="M341.4,149.4H170.7c-11.8,0-21.3-9.6-21.3-21.3c0-4,1.1-7.8,3.3-11.6c0.4-0.6,0.8-1.3,1.3-1.8L239.3,8
	c11-11.2,23.7-9.8,32.3-1.4l86.6,108c0.5,0.6,0.9,1.2,1.3,1.8c2.2,3.7,3.3,7.5,3.3,11.6C362.7,139.8,353.1,149.4,341.4,149.4z
	 M192.7,117.4h126.6L256,38.2L192.7,117.4z"/>
</svg>
