<?xml version="1.0" encoding="utf-8"?>
<!-- Generator: Adobe Illustrator 19.2.0, SVG Export Plug-In . SVG Version: 6.00 Build 0)  -->
<svg version="1.1" id="Layer_1" xmlns="http://www.w3.org/2000/svg" xmlns:xlink="http://www.w3.org/1999/xlink" x="0px" y="0px"
	 viewBox="0 0 512 512" style="enable-background:new 0 0 512 512;" xml:space="preserve">
<style type="text/css">
	.st0{fill:#FFFFFF;}
</style>
<path class="st0" d="M277.3,384c0,11.8-9.6,21.3-21.3,21.3s-21.3-9.6-21.3-21.3s9.6-21.3,21.3-21.3S277.3,372.2,277.3,384z"/>
<path class="st0" d="M256,512C114.8,512,0,397.2,0,256S114.8,0,256,0s256,114.8,256,256S397.2,512,256,512z M256,32
	C132.5,32,32,132.5,32,256s100.5,224,224,224s224-100.5,224-224S379.5,32,256,32z"/>
<path class="st0" d="M256,314.7c-8.8,0-16-7.2-16-16v-21.5c0-20.3,12.9-38.5,32-45.3c25.5-9,42.6-36.1,42.6-55.9
	c0-32.4-26.3-58.7-58.7-58.7s-58.7,26.3-58.7,58.7c0,8.8-7.2,16-16,16s-16-7.2-16-16c0-50,40.7-90.7,90.7-90.7s90.7,40.7,90.7,90.7
	c0,35.6-28.1,73.4-64,86c-6.4,2.2-10.7,8.3-10.7,15.1v21.5C272,307.5,264.8,314.7,256,314.7z"/>
</svg>
