<?xml version="1.0" encoding="utf-8"?>
<!-- Generator: Adobe Illustrator 19.2.0, SVG Export Plug-In . SVG Version: 6.00 Build 0)  -->
<svg version="1.1" id="Layer_1" xmlns="http://www.w3.org/2000/svg" xmlns:xlink="http://www.w3.org/1999/xlink" x="0px" y="0px"
	 viewBox="0 0 213.5 512" style="enable-background:new 0 0 213.5 512;" xml:space="preserve">
<style type="text/css">
	.st0{fill:#FFFFFF;}
</style>
<path class="st0" d="M106.7,320c-35.3,0-64-28.7-64-64s28.7-64,64-64s64,28.7,64,64S142,320,106.7,320z M106.7,224.2
	c-17.6,0-32,14.4-32,32s14.4,32,32,32s32-14.4,32-32C138.7,238.4,124.4,224.2,106.7,224.2z"/>
<path class="st0" d="M106.7,512c-5.8,0-11.3-2.3-15.5-6.5l-86.6-108c-0.5-0.6-0.9-1.2-1.3-1.8C1.1,392,0,388.1,0,384.1
	c0-11.8,9.6-21.3,21.3-21.3H192c11.8,0,21.3,9.6,21.3,21.3c0,4-1.1,7.8-3.3,11.6c-0.4,0.6-0.8,1.3-1.3,1.8l-85.3,106.6
	C118,509.8,112.5,512,106.7,512z M43.4,394.8l63.4,79.2l63.3-79.2H43.4z M192,394.8h0.2H192z"/>
<path class="st0" d="M192,149.4H21.4c-11.8,0-21.3-9.6-21.3-21.3c0-4,1.1-7.8,3.3-11.6c0.4-0.6,0.8-1.3,1.3-1.8L90,8.1
	c11-11.2,23.7-9.8,32.3-1.4l86.6,108c0.5,0.6,0.9,1.2,1.3,1.8c2.2,3.7,3.3,7.5,3.3,11.6C213.4,139.9,203.8,149.4,192,149.4z
	 M43.4,117.5H170l-63.4-79.2L43.4,117.5z"/>
</svg>
