<?xml version="1.0" encoding="utf-8"?>
<!-- Generator: Adobe Illustrator 19.2.0, SVG Export Plug-In . SVG Version: 6.00 Build 0)  -->
<svg version="1.1" id="Layer_1" xmlns="http://www.w3.org/2000/svg" xmlns:xlink="http://www.w3.org/1999/xlink" x="0px" y="0px"
	 viewBox="0 0 512 512" style="enable-background:new 0 0 512 512;" xml:space="preserve">
<style type="text/css">
	.st0{fill:#FFFFFF;}
</style>
<path class="st0" d="M234.7,170.7c-8.8,0-16-7.2-16-16V16c0-8.8,7.2-16,16-16s16,7.2,16,16v138.7
	C250.7,163.5,243.5,170.7,234.7,170.7z"/>
<path class="st0" d="M234.7,512C105.3,512,0,406.7,0,277.3C0,179.1,62.1,90.4,154.5,56.6c8.3-3,17.5,1.2,20.5,9.5
	c3,8.3-1.2,17.5-9.5,20.5C85.7,115.9,32,192.5,32,277.3C32,389.1,122.9,480,234.7,480c111.7,0,202.7-90.9,202.7-202.7
	c0-84.8-53.7-161.4-133.5-190.6c-8.3-3.1-12.6-12.2-9.5-20.5c3-8.3,12.2-12.6,20.5-9.5c92.4,33.8,154.5,122.5,154.5,220.7
	C469.3,406.7,364.1,512,234.7,512z"/>
</svg>
