<?xml version="1.0" encoding="utf-8"?>
<!-- Generator: Adobe Illustrator 19.2.0, SVG Export Plug-In . SVG Version: 6.00 Build 0)  -->
<svg version="1.1" id="Capa_1" xmlns="http://www.w3.org/2000/svg" xmlns:xlink="http://www.w3.org/1999/xlink" x="0px" y="0px"
	 viewBox="0 0 512 512" style="enable-background:new 0 0 512 512;" xml:space="preserve">
<style type="text/css">
	.st0{fill:#FFFFFF;}
</style>
<g>
	<g>
		<path class="st0" d="M112,48C50.2,48,0,98.2,0,160c0,57.5,89.9,159.3,100.1,170.7c3,3.4,7.4,5.3,11.9,5.3s8.9-2,11.9-5.3
			C134.1,319.3,224,217.5,224,160C224,98.2,173.8,48,112,48z M112,295.6C77.1,254.1,32,190.5,32,160c0-44.1,35.9-80,80-80
			s80,35.9,80,80C192,190.5,146.9,254.1,112,295.6z"/>
	</g>
</g>
<g>
	<g>
		<path class="st0" d="M112,112c-26.5,0-48,21.5-48,48s21.5,48,48,48s48-21.5,48-48S138.5,112,112,112z M112,176
			c-8.8,0-16-7.2-16-16s7.2-16,16-16s16,7.2,16,16S120.8,176,112,176z"/>
	</g>
</g>
<g>
	<g>
		<path class="st0" d="M400,48c-61.8,0-112,50.2-112,112c0,57.5,89.9,159.3,100.1,170.7c3,3.4,7.4,5.3,11.9,5.3s8.9-2,11.9-5.3
			C422.1,319.3,512,217.5,512,160C512,98.2,461.8,48,400,48z M400,295.6c-34.9-41.4-80-105.1-80-135.6c0-44.1,35.9-80,80-80
			s80,35.9,80,80C480,190.5,434.9,254.1,400,295.6z"/>
	</g>
</g>
<g>
	<g>
		<path class="st0" d="M400,112c-26.5,0-48,21.5-48,48s21.5,48,48,48s48-21.5,48-48S426.5,112,400,112z M400,176
			c-8.8,0-16-7.2-16-16s7.2-16,16-16s16,7.2,16,16S408.8,176,400,176z"/>
	</g>
</g>
<g>
	<g>
		<path class="st0" d="M400,368c-20.8,0-38.4,13.4-45.1,32H157.1c-6.6-18.6-24.2-32-45.1-32c-26.5,0-48,21.5-48,48s21.5,48,48,48
			c20.8,0,38.4-13.4,45.1-32h197.9c6.6,18.6,24.2,32,45.1,32c26.5,0,48-21.5,48-48S426.5,368,400,368z M112,432c-8.8,0-16-7.2-16-16
			s7.2-16,16-16s16,7.2,16,16S120.8,432,112,432z M400,432c-8.8,0-16-7.2-16-16s7.2-16,16-16s16,7.2,16,16S408.8,432,400,432z"/>
	</g>
</g>
</svg>
