<?xml version="1.0" encoding="utf-8"?>
<!-- Generator: Adobe Illustrator 19.2.0, SVG Export Plug-In . SVG Version: 6.00 Build 0)  -->
<svg version="1.1" id="Capa_1" xmlns="http://www.w3.org/2000/svg" xmlns:xlink="http://www.w3.org/1999/xlink" x="0px" y="0px"
	 viewBox="0 0 512 512" style="enable-background:new 0 0 512 512;" xml:space="preserve">
<style type="text/css">
	.st0{fill:#FFFFFF;}
</style>
<g>
	<g>
		<g>
			<path class="st0" d="M53.3,362.7c-5.9,0-10.7,4.8-10.7,10.7S47.4,384,53.3,384S64,379.2,64,373.3S59.2,362.7,53.3,362.7z"/>
			<path class="st0" d="M53.3,448c-5.9,0-10.7,4.8-10.7,10.7s4.8,10.7,10.7,10.7S64,464.6,64,458.7S59.2,448,53.3,448z"/>
			<path class="st0" d="M96,298.7c5.9,0,10.7-4.8,10.7-10.8V181.2c0-17.6,14.4-32,32-32h80.9l-3.1,3.1c-4.2,4.2-4.2,10.9,0,15.1
				s10.9,4.2,15.1,0l21.3-21.3c0.2-0.2,0.4-0.4,0.6-0.7c1.4-1.6,2.2-3.6,2.5-5.6c0.1-0.6,0.1-1.3,0-1.9c-0.1-2.5-1.2-4.9-3.1-6.8
				c0,0,0,0,0,0l-21.3-21.3c-4.2-4.2-10.9-4.2-15.1,0c-2.1,2.1-3.1,4.8-3.1,7.6s1,5.5,3.1,7.6l3.1,3.1h-80.9
				c-29.4,0-53.3,23.9-53.3,53.3V288C85.3,293.9,90.1,298.7,96,298.7z"/>
			<path class="st0" d="M330.7,448h-85.3c-5.9,0-10.7,4.8-10.7,10.7s4.8,10.7,10.7,10.7h85.3c5.9,0,10.7-4.8,10.7-10.7
				S336.6,448,330.7,448z"/>
			<path class="st0" d="M480,256.1c-5.9,0-10.7,4.8-10.7,10.7v128c0,5.9-4.8,10.7-10.7,10.7h-16.9l3.1-3.1c4.2-4.2,4.2-10.9,0-15.1
				s-10.9-4.2-15.1,0l-21.3,21.3c-0.2,0.2-0.4,0.4-0.6,0.7c-1.4,1.6-2.2,3.6-2.5,5.6c-0.1,0.6-0.1,1.3,0,1.9
				c0.1,2.5,1.2,4.9,3.1,6.8c0,0,0,0,0,0l21.3,21.3c2.1,2.1,4.8,3.1,7.6,3.1s5.5-0.9,7.5-3c2.1-2.1,3.1-4.8,3.1-7.6s-1-5.5-3.1-7.6
				l-3.1-3.1h16.9c17.6,0,32-14.4,32-32v-128C490.7,260.9,485.9,256.1,480,256.1z"/>
			<path class="st0" d="M512,117.3C512,52.6,459.4,0,394.7,0S277.3,52.6,277.3,117.3S330,234.7,394.7,234.7S512,182,512,117.3z
				 M490.7,117.3c0,8.6-16.4,19.6-44,26.2c0.9-8.7,1.4-17.5,1.4-26.2s-0.5-17.5-1.4-26.2C474.3,97.7,490.7,108.8,490.7,117.3z
				 M483.7,81.8c-11.3-5.8-25.2-10.2-40.3-13.1c-3-15.1-7.4-29-13.1-40.3C454.5,38.1,473.9,57.5,483.7,81.8z M394.7,21.3
				c8.6,0,19.6,16.4,26.2,44c-8.7-0.9-17.5-1.4-26.2-1.4s-17.5,0.5-26.2,1.4C375.1,37.7,386.1,21.3,394.7,21.3z M298.7,117.3
				c0-8.6,16.4-19.6,44-26.2c-0.9,8.7-1.4,17.5-1.4,26.2s0.5,17.5,1.4,26.2C315,136.9,298.7,125.9,298.7,117.3z M305.7,152.9
				C317,158.6,330.9,163,346,166c3,15.1,7.4,29,13.1,40.3C334.8,196.6,315.4,177.2,305.7,152.9z M346,68.7c-15.1,3-29,7.4-40.3,13.1
				c9.7-24.4,29.1-43.7,53.5-53.5C353.4,39.6,349,53.5,346,68.7z M394.7,213.3c-8.6,0-19.6-16.4-26.2-44c8.7,0.9,17.5,1.4,26.2,1.4
				s17.5-0.5,26.2-1.4C414.3,197,403.2,213.3,394.7,213.3z M424.7,147.4c-9.3,1.2-19.2,2-30,2s-20.7-0.8-30-2c-1.2-9.3-2-19.2-2-30
				s0.8-20.7,2-30c9.3-1.2,19.2-2,30-2s20.7,0.8,30,2c1.2,9.3,2,19.2,2,30S425.9,138.1,424.7,147.4z M430.2,206.3
				c5.8-11.3,10.2-25.2,13.1-40.3c15.1-3,29-7.4,40.3-13.1C473.9,177.2,454.5,196.6,430.2,206.3z"/>
			<path class="st0" d="M352,320H32c-17.6,0-32,14.4-32,32v42.7c0,8.2,3.2,15.7,8.3,21.3C3.2,421.7,0,429.1,0,437.3V480
				c0,17.6,14.4,32,32,32h320c17.6,0,32-14.4,32-32v-42.7c0-8.2-3.2-15.7-8.3-21.3c5.1-5.7,8.3-13.1,8.3-21.3V352
				C384,334.4,369.6,320,352,320z M362.7,480c0,5.9-4.8,10.7-10.7,10.7H32c-5.9,0-10.7-4.8-10.7-10.7v-42.7
				c0-5.9,4.8-10.7,10.7-10.7h320c5.9,0,10.7,4.8,10.7,10.7V480z M362.7,394.7c0,5.9-4.8,10.7-10.7,10.7H32
				c-5.9,0-10.7-4.8-10.7-10.7V352c0-5.9,4.8-10.7,10.7-10.7h320c5.9,0,10.7,4.8,10.7,10.7V394.7z"/>
			<path class="st0" d="M330.7,362.7h-85.3c-5.9,0-10.7,4.8-10.7,10.7s4.8,10.7,10.7,10.7h85.3c5.9,0,10.7-4.8,10.7-10.7
				C341.3,367.4,336.6,362.7,330.7,362.7z"/>
		</g>
	</g>
</g>
</svg>
