<?xml version="1.0" encoding="utf-8"?>
<!-- Generator: Adobe Illustrator 19.2.0, SVG Export Plug-In . SVG Version: 6.00 Build 0)  -->
<svg version="1.1" id="Layer_1" xmlns="http://www.w3.org/2000/svg" xmlns:xlink="http://www.w3.org/1999/xlink" x="0px" y="0px"
	 viewBox="0 0 512 512" style="enable-background:new 0 0 512 512;" xml:space="preserve">
<style type="text/css">
	.st0{fill:#FFFFFF;}
</style>
<path class="st0" d="M244.3,362.7c-58.8,0-106.7-47.9-106.7-106.7s47.9-106.7,106.7-106.7c58.8,0,106.7,47.9,106.7,106.7
	S303.1,362.7,244.3,362.7z M244.3,181.3c-41.2,0-74.7,33.5-74.7,74.7s33.5,74.7,74.7,74.7c41.2,0,74.7-33.5,74.7-74.7
	S285.5,181.3,244.3,181.3z"/>
<path class="st0" d="M279.8,512h-71c-17.1,0-32.1-12.1-35.9-28.8l-9-39.9c-14.6-6.2-28.6-14.3-41.7-24.2l-38.9,12.3
	c-16.7,5.2-34.8-1.9-43.2-16.8L4.9,353.3c-8.5-15.1-5.6-33.8,6.8-45.5l30.1-27.7c-0.9-8.1-1.4-16.2-1.4-24.1s0.4-16,1.3-24.1
	l-30-27.6c-12.6-11.9-15.5-30.5-7.1-45.5l35.6-61.5c8.3-14.8,26.4-21.8,43-16.7l39,12.3c13.1-9.9,27.1-18,41.7-24.2l9-40
	C176.7,12.1,191.8,0,208.8,0h71c17.1,0,32.1,12.1,35.9,28.8l9,39.9c14.6,6.2,28.6,14.3,41.7,24.2l38.9-12.3
	c16.7-5.1,34.8,1.9,43.2,16.8l35.4,61.2c8.5,15.1,5.6,33.8-6.9,45.5l-30.1,27.7c0.9,8.1,1.3,16.2,1.3,24.1s-0.4,16-1.3,24.1l30,27.6
	c0,0,0.1,0.1,0.1,0.1c12.5,11.7,15.3,30.4,7,45.3l-35.6,61.5c-8.3,14.8-26.4,21.8-43,16.7l-39-12.3c-13.1,9.9-27.1,18-41.7,24.2
	l-9,40C311.9,499.9,296.9,512,279.8,512z M125.6,385.3c3.7,0,7.3,1.3,10.2,3.6c14.7,12.1,30.6,21.4,47.6,27.6
	c5.1,1.9,8.9,6.2,10.1,11.5l10.9,48.2c0.5,2.2,2.4,3.8,4.6,3.8h71c2.2,0,4.1-1.6,4.6-3.8l10.9-48.3c1.2-5.3,5-9.6,10.1-11.5
	c16.9-6.2,32.9-15.5,47.6-27.6c4.2-3.5,9.8-4.6,15-2.9l47,14.8c2.2,0.7,4.6-0.1,5.7-2l35.6-61.5c1.1-1.9,0.7-4.5-1-6.2l-36-33.1
	c-3.9-3.6-5.8-8.9-5-14.1c1.4-9.4,2.1-18.8,2.1-27.9c0-9.1-0.7-18.5-2.1-27.9c-0.8-5.2,1.1-10.5,5-14.1l36.1-33.2
	c1.6-1.5,2-4.2,0.8-6.3l-35.4-61.2c-1.1-2-3.6-2.8-5.8-2.1L367.9,126c-5.2,1.6-10.8,0.5-15-2.9c-14.7-12.1-30.6-21.4-47.6-27.6
	c-5.1-1.9-8.9-6.2-10.1-11.5l-10.9-48.2c-0.5-2.2-2.5-3.8-4.7-3.8h-71c-2.2,0-4.1,1.6-4.6,3.8L193.3,84c-1.2,5.3-5,9.6-10.1,11.5
	c-16.9,6.2-32.9,15.5-47.5,27.6c-4.2,3.5-9.9,4.5-15,2.9l-47-14.8c-2.2-0.7-4.6,0.1-5.7,2l-35.6,61.5c-1.1,1.9-0.7,4.6,1.1,6.2
	l36,33c3.9,3.6,5.8,8.9,5,14.1c-1.4,9.4-2.1,18.8-2.1,27.9s0.7,18.5,2.1,27.9c0.8,5.2-1.1,10.5-5,14.1l-36.1,33.2
	c-1.6,1.5-2,4.2-0.8,6.3l35.4,61.2c1.1,2,3.6,2.8,5.8,2.1l46.9-14.8C122.3,385.5,124,385.3,125.6,385.3z"/>
</svg>
