<?xml version="1.0" encoding="utf-8"?>
<!-- Generator: Adobe Illustrator 19.2.0, SVG Export Plug-In . SVG Version: 6.00 Build 0)  -->
<svg version="1.1" id="_x31__x2C_5" xmlns="http://www.w3.org/2000/svg" xmlns:xlink="http://www.w3.org/1999/xlink" x="0px"
	 y="0px" viewBox="0 0 512 512" style="enable-background:new 0 0 512 512;" xml:space="preserve">
<style type="text/css">
	.st0{fill:#FFFFFF;}
</style>
<path class="st0" d="M453.3,512H80c-32.4,0-58.7-26.3-58.7-58.7V58.7C21.3,26.3,47.6,0,80,0h330.7c8.8,0,16,7.2,16,16v69.3h26.7
	c8.8,0,16,7.2,16,16V496C469.3,504.8,462.2,512,453.3,512z M53.3,110.9v342.4c0,14.7,12,26.7,26.7,26.7h357.3V117.3H80
	C70.4,117.3,61.3,115,53.3,110.9L53.3,110.9z M80,32c-14.7,0-26.7,12-26.7,26.7s12,26.7,26.7,26.7h314.7V32H80z"/>
<path class="st0" d="M261.3,405.3c-2.9,0-5.8-0.8-8.4-2.4L192,365.5L131.1,403c-4.9,3.1-11.1,3.2-16.2,0.3c-5.1-2.8-8.2-8.2-8.2-14
	v-288h32v259.4l44.9-27.6c5.2-3.2,11.6-3.2,16.8,0l44.9,27.6V101.3h32v288c0,5.8-3.1,11.1-8.2,14C266.7,404.7,264,405.3,261.3,405.3
	z"/>
</svg>
