<?xml version="1.0" encoding="utf-8"?>
<!-- Generator: Adobe Illustrator 19.2.0, SVG Export Plug-In . SVG Version: 6.00 Build 0)  -->
<svg version="1.1" id="_x31__x2C_5" xmlns="http://www.w3.org/2000/svg" xmlns:xlink="http://www.w3.org/1999/xlink" x="0px"
	 y="0px" viewBox="0 0 512 512" style="enable-background:new 0 0 512 512;" xml:space="preserve">
<style type="text/css">
	.st0{fill:#FFFFFF;}
</style>
<path class="st0" d="M405.3,170.7c-23.5,0-42.7-19.1-42.7-42.7s19.1-42.7,42.7-42.7S448,104.5,448,128S428.9,170.7,405.3,170.7z
	 M405.3,117.3c-5.9,0-10.7,4.8-10.7,10.7s4.8,10.7,10.7,10.7S416,133.9,416,128S411.2,117.3,405.3,117.3z"/>
<path class="st0" d="M256,490.7c-23.5,0-42.7-19.1-42.7-42.7c0-23.5,19.1-42.7,42.7-42.7s42.7,19.1,42.7,42.7
	C298.7,471.5,279.5,490.7,256,490.7z M256,437.3c-5.9,0-10.7,4.8-10.7,10.7c0,5.9,4.8,10.7,10.7,10.7c5.9,0,10.7-4.8,10.7-10.7
	C266.7,442.1,261.9,437.3,256,437.3z"/>
<path class="st0" d="M496,309.3h-21.3c-8.8,0-16-7.2-16-16s7.2-16,16-16H496c8.8,0,16,7.2,16,16S504.8,309.3,496,309.3z"/>
<path class="st0" d="M423.2,309.3h-25.7c-8.8,0-16-7.2-16-16s7.2-16,16-16h25.7c8.8,0,16,7.2,16,16S432,309.3,423.2,309.3z
	 M346,309.3h-25.7c-8.8,0-16-7.2-16-16s7.2-16,16-16H346c8.8,0,16,7.2,16,16S354.9,309.3,346,309.3z"/>
<path class="st0" d="M268.9,309.3h-25.7c-8.8,0-16-7.2-16-16s7.1-16,16-16h25.7c8.8,0,16,7.2,16,16S277.7,309.3,268.9,309.3z
	 M191.7,309.3H166c-8.8,0-16-7.2-16-16s7.2-16,16-16h25.7c8.8,0,16,7.2,16,16S200.5,309.3,191.7,309.3z M114.5,309.3H88.8
	c-8.8,0-16-7.2-16-16s7.2-16,16-16h25.7c8.8,0,16,7.2,16,16S123.4,309.3,114.5,309.3z"/>
<path class="st0" d="M37.4,309.3H16c-8.8,0-16-7.2-16-16s7.2-16,16-16h21.3c8.8,0,16,7.2,16,16S46.2,309.3,37.4,309.3z"/>
<path class="st0" d="M106.7,106.7C83.1,106.7,64,87.5,64,64s19.1-42.7,42.7-42.7s42.7,19.1,42.7,42.7S130.2,106.7,106.7,106.7z
	 M106.7,53.3C100.8,53.3,96,58.1,96,64s4.8,10.7,10.7,10.7s10.7-4.8,10.7-10.7S112.5,53.3,106.7,53.3z"/>
<path class="st0" d="M474.7,304c-8.8,0-16-7.2-16-16v-90.7c0-13.9-5.7-27.7-15.7-37.8c-5-5-11-9-17.7-11.8
	c-8.2-3.4-12-12.7-8.7-20.9c3.4-8.1,12.8-12,20.9-8.7c10.7,4.4,20.2,10.8,28.2,18.8c15.9,16.1,25,38.1,25,60.4V288
	C490.7,296.8,483.5,304,474.7,304L474.7,304z"/>
<path class="st0" d="M282,459.5c-6.7,0-12.9-4.2-15.2-10.9c-2.8-8.4,1.7-17.5,10.1-20.2c9-3,17.3-8.2,24.3-15.1
	C313.3,401.1,320,385,320,368V197.3c0-34.8,20.9-65.9,53.2-79.2c8.1-3.4,17.5,0.5,20.9,8.7c3.4,8.2-0.5,17.5-8.7,20.9
	c-20.3,8.3-33.4,27.8-33.4,49.6V368c0,25.6-10,49.7-28.1,67.8c-10.4,10.4-23.1,18.3-36.8,22.8C285.4,459.3,283.7,459.5,282,459.5
	L282,459.5z"/>
<path class="st0" d="M230,459.5c-1.7,0-3.4-0.3-5.1-0.9C186.1,445.5,160,409,160,368V133.3c0-13.9-5.7-27.7-15.7-37.8
	c-5-5-11-9-17.7-11.8c-8.2-3.4-12.1-12.7-8.7-20.9c3.4-8.1,12.8-12,20.9-8.7C149.5,58.5,159,64.9,167,73c15.9,16.1,25,38.1,25,60.4
	V368c0,27.3,17.3,51.6,43.1,60.4c8.4,2.8,12.9,11.9,10,20.3C242.9,455.3,236.7,459.5,230,459.5z"/>
<path class="st0" d="M37.3,304c-8.8,0-16-7.2-16-16V133.3c0-34.8,20.9-65.9,53.2-79.2c8.1-3.3,17.5,0.5,20.9,8.7s-0.5,17.5-8.7,20.9
	c-20.3,8.4-33.4,27.9-33.4,49.6V288C53.3,296.8,46.2,304,37.3,304z"/>
</svg>
