<?xml version="1.0" encoding="utf-8"?>
<!-- Generator: Adobe Illustrator 19.2.0, SVG Export Plug-In . SVG Version: 6.00 Build 0)  -->
<svg version="1.1" id="Layer_1" xmlns="http://www.w3.org/2000/svg" xmlns:xlink="http://www.w3.org/1999/xlink" x="0px" y="0px"
	 viewBox="0 0 300 300" style="enable-background:new 0 0 300 300;" xml:space="preserve">
<style type="text/css">
	.st0{fill:#FFFFFF;}
</style>
<g>
	<g>
		<path class="st0" d="M209.3,96.9h41.8c2.6,7.3,9.5,12.5,17.7,12.5c10.3,0,18.8-8.4,18.8-18.8s-8.4-18.8-18.8-18.8
			c-8.1,0-15.1,5.2-17.7,12.5h-69.8V65.6c0-3.5-2.8-6.2-6.2-6.2h-50c-3.5,0-6.2,2.8-6.2,6.2v18.8H48.9c-2.6-7.3-9.5-12.5-17.7-12.5
			c-10.3,0-18.8,8.4-18.8,18.8s8.4,18.8,18.8,18.8c8.1,0,15.1-5.2,17.7-12.5h41.8C40.1,115.4,0,172.6,0,234.4c0,3.5,2.8,6.2,6.2,6.2
			s6.2-2.8,6.2-6.2c0-66.2,49.9-126.8,106.2-131v12.3c0,3.5,2.8,6.2,6.2,6.2h50c3.5,0,6.2-2.8,6.2-6.2v-12.3
			c56.4,4.2,106.2,64.8,106.2,131c0,3.5,2.8,6.2,6.2,6.2s6.2-2.8,6.2-6.2C300,172.6,259.9,115.4,209.3,96.9z M268.7,84.4
			c3.5,0,6.3,2.8,6.3,6.2s-2.8,6.2-6.3,6.2s-6.2-2.8-6.2-6.2S265.3,84.4,268.7,84.4z M31.3,96.9c-3.5,0-6.3-2.8-6.3-6.2
			s2.8-6.2,6.3-6.2s6.2,2.8,6.2,6.2S34.7,96.9,31.3,96.9z M168.8,109.4h-37.5V71.9h37.5V109.4z"/>
	</g>
</g>
</svg>
