<?xml version="1.0" encoding="utf-8"?>
<!-- Generator: Adobe Illustrator 19.2.0, SVG Export Plug-In . SVG Version: 6.00 Build 0)  -->
<svg version="1.1" id="Layer_1" xmlns="http://www.w3.org/2000/svg" xmlns:xlink="http://www.w3.org/1999/xlink" x="0px" y="0px"
	 viewBox="0 0 300.1 300.1" style="enable-background:new 0 0 300.1 300.1;" xml:space="preserve">
<style type="text/css">
	.st0{fill:#FFFFFF;}
</style>
<g>
	<g>
		<path class="st0" d="M279.6,129.6c-8.9,0-16.5,5.7-19.3,13.6H187l-32.1-32.1c-2.7-2.7-7-2.7-9.6,0l-32.1,32.1H39.7
			c-2.8-7.9-10.4-13.6-19.3-13.6C9.2,129.6,0,138.8,0,150s9.2,20.5,20.5,20.5c8.9,0,16.4-5.7,19.3-13.6h73.4l32.1,32.1
			c1.3,1.3,3.1,2,4.8,2s3.5-0.7,4.8-2l32.1-32.1h73.4c2.8,7.9,10.4,13.6,19.3,13.6c11.3,0,20.5-9.2,20.5-20.5
			S290.9,129.6,279.6,129.6z M20.5,156.9c-3.8,0-6.8-3.1-6.8-6.8s3.1-6.8,6.8-6.8s6.8,3.1,6.8,6.8S24.2,156.9,20.5,156.9z
			 M150,174.5L125.6,150l24.5-24.5l24.5,24.5L150,174.5z M279.6,156.9c-3.8,0-6.8-3.1-6.8-6.8s3.1-6.8,6.8-6.8
			c3.8,0,6.8,3.1,6.8,6.8S283.4,156.9,279.6,156.9z"/>
	</g>
</g>
</svg>
