<?xml version="1.0" encoding="utf-8"?>
<!-- Generator: Adobe Illustrator 19.2.0, SVG Export Plug-In . SVG Version: 6.00 Build 0)  -->
<svg version="1.1" id="Layer_1" xmlns="http://www.w3.org/2000/svg" xmlns:xlink="http://www.w3.org/1999/xlink" x="0px" y="0px"
	 viewBox="0 0 512 512" style="enable-background:new 0 0 512 512;" xml:space="preserve">
<style type="text/css">
	.st0{fill:#FFFFFF;}
</style>
<path class="st0" d="M368,512H101.3c-32.4,0-58.7-26.3-58.7-58.7V176c0-8.8,7.2-16,16-16s16,7.2,16,16v277.3
	c0,14.7,12,26.7,26.7,26.7H368c14.7,0,26.7-12,26.7-26.7V176c0-8.8,7.2-16,16-16s16,7.2,16,16v277.3C426.7,485.7,400.4,512,368,512z
	"/>
<path class="st0" d="M453.3,192H16c-8.8,0-16-7.2-16-16v-53.3C0,90.3,26.3,64,58.7,64h352c32.4,0,58.7,26.3,58.7,58.7V176
	C469.3,184.8,462.2,192,453.3,192z M32,160h405.3v-37.3c0-14.7-12-26.7-26.7-26.7h-352C44,96,32,108,32,122.7V160z"/>
<path class="st0" d="M325.3,96c-8.8,0-16-7.2-16-16V37.3c0-2.9-2.4-5.3-5.3-5.3H165.3c-2.9,0-5.3,2.4-5.3,5.3V80c0,8.8-7.2,16-16,16
	s-16-7.2-16-16V37.3C128,16.7,144.7,0,165.3,0H304c20.6,0,37.3,16.7,37.3,37.3V80C341.3,88.8,334.2,96,325.3,96z"/>
<path class="st0" d="M234.7,426.7c-8.8,0-16-7.2-16-16V272c0-8.8,7.2-16,16-16s16,7.2,16,16v138.7
	C250.7,419.5,243.5,426.7,234.7,426.7z"/>
<path class="st0" d="M144,426.7c-8.8,0-16-7.2-16-16V272c0-8.8,7.2-16,16-16s16,7.2,16,16v138.7C160,419.5,152.8,426.7,144,426.7z"
	/>
<path class="st0" d="M325.3,426.7c-8.8,0-16-7.2-16-16V272c0-8.8,7.2-16,16-16s16,7.2,16,16v138.7
	C341.3,419.5,334.2,426.7,325.3,426.7z"/>
</svg>
