<?xml version="1.0" encoding="utf-8"?>
<!-- Generator: Adobe Illustrator 19.2.0, SVG Export Plug-In . SVG Version: 6.00 Build 0)  -->
<svg version="1.1" id="_x31__x2C_5" xmlns="http://www.w3.org/2000/svg" xmlns:xlink="http://www.w3.org/1999/xlink" x="0px"
	 y="0px" viewBox="0 0 512 512" style="enable-background:new 0 0 512 512;" xml:space="preserve">
<style type="text/css">
	.st0{fill:#FFFFFF;}
</style>
<path class="st0" d="M112,362.7H69.3c-20.6,0-37.3-16.7-37.3-37.3v-160c0-20.6,16.7-37.3,37.3-37.3H112c20.6,0,37.3,16.7,37.3,37.3
	v160C149.3,345.9,132.6,362.7,112,362.7z M69.3,160c-2.9,0-5.3,2.4-5.3,5.3v160c0,2.9,2.4,5.3,5.3,5.3H112c2.9,0,5.3-2.4,5.3-5.3
	v-160c0-2.9-2.4-5.3-5.3-5.3H69.3z"/>
<path class="st0" d="M90.7,160c-8.8,0-16-7.2-16-16V16c0-8.8,7.2-16,16-16s16,7.2,16,16v128C106.7,152.8,99.5,160,90.7,160z"/>
<path class="st0" d="M90.7,512c-8.8,0-16-7.2-16-16V346.7c0-8.8,7.2-16,16-16s16,7.2,16,16V496C106.7,504.8,99.5,512,90.7,512z"/>
<path class="st0" d="M282.7,426.7H240c-20.6,0-37.3-16.7-37.3-37.3v-160c0-20.6,16.7-37.3,37.3-37.3h42.7
	c20.6,0,37.3,16.7,37.3,37.3v160C320,409.9,303.3,426.7,282.7,426.7z M240,224c-2.9,0-5.3,2.4-5.3,5.3v160c0,2.9,2.4,5.3,5.3,5.3
	h42.7c2.9,0,5.3-2.4,5.3-5.3v-160c0-2.9-2.4-5.3-5.3-5.3H240z"/>
<path class="st0" d="M261.3,224c-8.8,0-16-7.2-16-16V16c0-8.8,7.2-16,16-16s16,7.2,16,16v192C277.3,216.8,270.2,224,261.3,224z"/>
<path class="st0" d="M261.3,512c-8.8,0-16-7.2-16-16v-85.3c0-8.8,7.2-16,16-16s16,7.2,16,16V496C277.3,504.8,270.2,512,261.3,512z"
	/>
<path class="st0" d="M453.3,298.7h-42.7c-20.6,0-37.3-16.7-37.3-37.3v-160c0-20.6,16.7-37.3,37.3-37.3h42.7
	c20.6,0,37.3,16.7,37.3,37.3v160C490.7,281.9,473.9,298.7,453.3,298.7z M410.7,96c-2.9,0-5.3,2.4-5.3,5.3v160c0,2.9,2.4,5.3,5.3,5.3
	h42.7c2.9,0,5.3-2.4,5.3-5.3v-160c0-2.9-2.4-5.3-5.3-5.3H410.7z"/>
<path class="st0" d="M432,96c-8.8,0-16-7.2-16-16V16c0-8.8,7.2-16,16-16c8.8,0,16,7.2,16,16v64C448,88.8,440.8,96,432,96z"/>
<path class="st0" d="M432,512c-8.8,0-16-7.2-16-16V282.7c0-8.8,7.2-16,16-16c8.8,0,16,7.2,16,16V496C448,504.8,440.8,512,432,512z"
	/>
</svg>
