<?xml version="1.0" encoding="utf-8"?>
<!-- Generator: Adobe Illustrator 19.2.0, SVG Export Plug-In . SVG Version: 6.00 Build 0)  -->
<svg version="1.1" id="Layer_1" xmlns="http://www.w3.org/2000/svg" xmlns:xlink="http://www.w3.org/1999/xlink" x="0px" y="0px"
	 viewBox="0 0 512 512" style="enable-background:new 0 0 512 512;" xml:space="preserve">
<style type="text/css">
	.st0{fill:#FFFFFF;}
</style>
<path class="st0" d="M256,362.7c-8.8,0-16-7.2-16-16V16c0-8.8,7.2-16,16-16s16,7.2,16,16v330.7C272,355.5,264.8,362.7,256,362.7z"/>
<path class="st0" d="M256,362.7c-4.1,0-8.2-1.6-11.3-4.7l-85.3-85.3c-6.2-6.2-6.2-16.4,0-22.6c6.2-6.2,16.4-6.2,22.6,0l74,74l74-74
	c6.2-6.2,16.4-6.2,22.6,0c6.2,6.3,6.2,16.4,0,22.6L267.3,358C264.2,361.1,260.1,362.7,256,362.7z"/>
<path class="st0" d="M453.3,512H58.7C26.3,512,0,485.7,0,453.3v-96c0-8.8,7.2-16,16-16s16,7.2,16,16v96C32,468,44,480,58.7,480
	h394.7c14.7,0,26.7-12,26.7-26.7v-96c0-8.8,7.2-16,16-16s16,7.2,16,16v96C512,485.7,485.7,512,453.3,512z"/>
</svg>
