<?xml version="1.0" encoding="utf-8"?>
<!-- Generator: Adobe Illustrator 19.2.0, SVG Export Plug-In . SVG Version: 6.00 Build 0)  -->
<svg version="1.1" id="Capa_1" xmlns="http://www.w3.org/2000/svg" xmlns:xlink="http://www.w3.org/1999/xlink" x="0px" y="0px"
	 viewBox="0 0 512 512" style="enable-background:new 0 0 512 512;" xml:space="preserve">
<style type="text/css">
	.st0{fill:#FFFFFF;}
</style>
<g>
	<path class="st0" d="M512,256c0-60.5-21.1-116.1-56.3-160L327,318.9h177.2C509.3,298.8,512,277.7,512,256z"/>
	<path class="st0" d="M346,226l88.5-153.3C388.4,27.7,325.4,0,256,0c-13.2,0-26.1,1-38.8,2.9L346,226z"/>
	<path class="st0" d="M166,286L77.5,439.3c46.2,45,109.1,72.7,178.5,72.7c13.2,0,26.1-1,38.8-2.9L166,286z"/>
	<path class="st0" d="M237,348.9l88.6,153.4c77.4-21.9,140-79.3,169-153.4L237,348.9z"/>
	<path class="st0" d="M275,163.1L186.4,9.6c-77.4,21.9-140,79.3-169,153.4H275z"/>
	<path class="st0" d="M153,248.5l32-55.4H7.8C2.7,213.2,0,234.3,0,256c0,60.5,21.1,116.1,56.3,160L153,248.5z"/>
</g>
</svg>
