<?xml version="1.0" encoding="utf-8"?>
<!-- Generator: Adobe Illustrator 19.2.0, SVG Export Plug-In . SVG Version: 6.00 Build 0)  -->
<svg version="1.1" id="Capa_1" xmlns="http://www.w3.org/2000/svg" xmlns:xlink="http://www.w3.org/1999/xlink" x="0px" y="0px"
	 viewBox="0 0 490.7 512" style="enable-background:new 0 0 490.7 512;" xml:space="preserve">
<style type="text/css">
	.st0{fill:#FFFFFF;}
</style>
<g>
	<g>
		<path class="st0" d="M394.7,21.3v56.8c-30.7,9.2-53.3,37.5-53.3,71.2c0,33.7,22.6,61.9,53.3,71.2l0,270.1
			c0,11.8,9.6,21.3,21.3,21.3s21.3-9.6,21.3-21.3l0-270.1c30.7-9.2,53.3-37.5,53.3-71.2s-22.6-61.9-53.3-71.2V21.3
			C437.3,9.5,427.8,0,416,0S394.7,9.5,394.7,21.3z M448,149.3c0,17.6-14.4,32-32,32s-32-14.4-32-32s14.4-32,32-32
			S448,131.7,448,149.3z"/>
	</g>
</g>
<g>
	<g>
		<path class="st0" d="M53.3,21.3l0,56.8C22.6,87.4,0,115.6,0,149.3s22.6,61.9,53.3,71.2l0,270.1c0,11.8,9.6,21.3,21.3,21.3
			c11.8,0,21.3-9.6,21.3-21.3l0-270.1c30.7-9.3,53.3-37.5,53.3-71.2c0-33.7-22.6-61.9-53.3-71.2l0-56.8C96,9.5,86.4,0,74.7,0
			C62.9,0,53.3,9.5,53.3,21.3z M106.7,149.3c0,17.6-14.4,32-32,32s-32-14.4-32-32c0-17.6,14.4-32,32-32
			C92.3,117.3,106.7,131.7,106.7,149.3z"/>
	</g>
</g>
<g>
	<g>
		<path class="st0" d="M224,21.3l0,270.1c-30.7,9.3-53.3,37.5-53.3,71.2s22.6,61.9,53.3,71.2l0,56.8c0,11.8,9.6,21.3,21.3,21.3
			c11.8,0,21.3-9.6,21.3-21.3v-56.8c30.7-9.3,53.3-37.5,53.3-71.2c0-33.7-22.6-61.9-53.3-71.2l0-270.1c0-11.8-9.6-21.3-21.3-21.3
			C233.6,0,224,9.5,224,21.3z M277.3,362.7c0,17.6-14.4,32-32,32s-32-14.4-32-32s14.4-32,32-32S277.3,345,277.3,362.7z"/>
	</g>
</g>
</svg>
