<?xml version="1.0" encoding="utf-8"?>
<!-- Generator: Adobe Illustrator 19.2.0, SVG Export Plug-In . SVG Version: 6.00 Build 0)  -->
<svg version="1.1" id="Capa_1" xmlns="http://www.w3.org/2000/svg" xmlns:xlink="http://www.w3.org/1999/xlink" x="0px" y="0px"
	 viewBox="0 0 512 512" style="enable-background:new 0 0 512 512;" xml:space="preserve">
<style type="text/css">
	.st0{fill:#FFFFFF;}
</style>
<g>
	<g>
		<rect y="152" class="st0" width="45" height="40"/>
	</g>
</g>
<g>
	<g>
		
			<rect x="24.9" y="258.2" transform="matrix(0.8931 -0.4498 0.4498 0.8931 -119.9252 51.603)" class="st0" width="47.5" height="40"/>
	</g>
</g>
<g>
	<g>
		
			<rect x="28.1" y="39.8" transform="matrix(0.4498 -0.8931 0.8931 0.4498 -29.7984 77.6669)" class="st0" width="40" height="46.4"/>
	</g>
</g>
<g>
	<g>
		<rect x="467" y="152" class="st0" width="45" height="40"/>
	</g>
</g>
<g>
	<g>
		
			<rect x="443.4" y="254.4" transform="matrix(0.4498 -0.8931 0.8931 0.4498 6.4993 566.9023)" class="st0" width="40" height="47.5"/>
	</g>
</g>
<g>
	<g>
		
			<rect x="440.7" y="43" transform="matrix(0.8931 -0.4498 0.4498 0.8931 21.2309 215.3835)" class="st0" width="46.4" height="40"/>
	</g>
</g>
<g>
	<g>
		<path class="st0" d="M428,170.9C427.4,76.5,350.5,0,256,0S84.6,76.5,84,170.9l0,1.1h0c0.3,68.7,29.2,106.7,54.7,140.3
			c21.3,28.1,38.2,50.2,38.2,87.2V452c0,33.1,26.9,60,60,60h38.2c33.1,0,60-26.9,60-60v-52.6c0-36.9,16.8-59.1,38.2-87.2
			c25.5-33.6,54.4-71.6,54.7-140.3L428,170.9L428,170.9z M295.1,452c0,11-9,20-20,20h-38.2c-11,0-20-9-20-20v-39h78.2V452z
			 M341.4,288.1c-18.5,24.4-37.5,49.4-44,84.9h-82.9c-6.5-35.6-25.5-60.6-44-84.9c-23.9-31.4-46.4-61-46.6-116.6
			C124.3,98.9,183.4,40,256,40s131.7,58.9,132,131.5C387.8,227,365.3,256.7,341.4,288.1z"/>
	</g>
</g>
</svg>
